<svg width="33" height="33" viewBox="0 0 33 33" fill="none" xmlns="http://www.w3.org/2000/svg">
<path d="M25.3477 8.69824V21.6982C25.3477 21.9635 25.2423 22.2178 25.0548 22.4053C24.8672 22.5929 24.6129 22.6982 24.3477 22.6982C24.0824 22.6982 23.8281 22.5929 23.6406 22.4053C23.453 22.2178 23.3477 21.9635 23.3477 21.6982V11.112L9.05516 25.4057C8.86752 25.5934 8.61303 25.6988 8.34766 25.6988C8.0823 25.6988 7.8278 25.5934 7.64016 25.4057C7.45252 25.2181 7.34711 24.9636 7.34711 24.6982C7.34711 24.4329 7.45252 24.1784 7.64016 23.9907L21.9339 9.69824H11.3477C11.0824 9.69824 10.8281 9.59289 10.6406 9.40535C10.453 9.21781 10.3477 8.96346 10.3477 8.69824C10.3477 8.43303 10.453 8.17867 10.6406 7.99114C10.8281 7.8036 11.0824 7.69824 11.3477 7.69824H24.3477C24.6129 7.69824 24.8672 7.8036 25.0548 7.99114C25.2423 8.17867 25.3477 8.43303 25.3477 8.69824Z" fill="#039855"/>
</svg>
