<svg width="25" height="25" viewBox="0 0 25 25" fill="none" xmlns="http://www.w3.org/2000/svg">
<path d="M18.1283 11.6666C18.198 11.7363 18.2533 11.819 18.2911 11.9101C18.3288 12.0011 18.3482 12.0987 18.3482 12.1973C18.3482 12.2958 18.3288 12.3934 18.2911 12.4845C18.2533 12.5755 18.198 12.6582 18.1283 12.7279L11.3783 19.4779C11.3086 19.5476 11.2259 19.6028 11.1348 19.6406C11.0438 19.6783 10.9462 19.6977 10.8477 19.6977C10.7491 19.6977 10.6515 19.6783 10.5605 19.6406C10.4694 19.6028 10.3867 19.5476 10.317 19.4779C10.2473 19.4082 10.1921 19.3255 10.1544 19.2344C10.1166 19.1434 10.0972 19.0458 10.0972 18.9473C10.0972 18.8487 10.1166 18.7511 10.1544 18.6601C10.1921 18.569 10.2473 18.4863 10.317 18.4166L15.7873 12.9473H3.34766C3.14874 12.9473 2.95798 12.8682 2.81733 12.7276C2.67667 12.5869 2.59766 12.3962 2.59766 12.1973C2.59766 11.9984 2.67667 11.8076 2.81733 11.6669C2.95798 11.5263 3.14874 11.4473 3.34766 11.4473H15.7873L10.317 5.97789C10.1763 5.83716 10.0972 5.64629 10.0972 5.44727C10.0972 5.24824 10.1763 5.05737 10.317 4.91664C10.4578 4.77591 10.6486 4.69685 10.8477 4.69685C11.0467 4.69685 11.2376 4.77591 11.3783 4.91664L18.1283 11.6666ZM20.5977 3.19727C20.3987 3.19727 20.208 3.27628 20.0673 3.41694C19.9267 3.55759 19.8477 3.74835 19.8477 3.94727V20.4473C19.8477 20.6462 19.9267 20.8369 20.0673 20.9776C20.208 21.1182 20.3987 21.1973 20.5977 21.1973C20.7966 21.1973 20.9873 21.1182 21.128 20.9776C21.2686 20.8369 21.3477 20.6462 21.3477 20.4473V3.94727C21.3477 3.74835 21.2686 3.55759 21.128 3.41694C20.9873 3.27628 20.7966 3.19727 20.5977 3.19727Z" fill="#94A3B8"/>
</svg>
