<svg width="25" height="25" viewBox="0 0 25 25" fill="none" xmlns="http://www.w3.org/2000/svg">
<path d="M16.0976 21.4473C16.0976 21.6462 16.0186 21.8369 15.8779 21.9776C15.7373 22.1182 15.5465 22.1973 15.3476 22.1973H9.34759C9.14867 22.1973 8.95791 22.1182 8.81726 21.9776C8.6766 21.8369 8.59759 21.6462 8.59759 21.4473C8.59759 21.2484 8.6766 21.0576 8.81726 20.9169C8.95791 20.7763 9.14867 20.6973 9.34759 20.6973H15.3476C15.5465 20.6973 15.7373 20.7763 15.8779 20.9169C16.0186 21.0576 16.0976 21.2484 16.0976 21.4473ZM21.146 18.4473C21.0159 18.6765 20.827 18.8669 20.5987 18.9987C20.3705 19.1305 20.1112 19.1991 19.8476 19.1973H4.84759C4.5839 19.1969 4.32497 19.1271 4.09689 18.9947C3.86881 18.8624 3.67964 18.6723 3.54844 18.4436C3.41725 18.2148 3.34867 17.9556 3.34962 17.6919C3.35057 17.4282 3.421 17.1694 3.55384 16.9416C4.07415 16.0454 4.84759 13.5104 4.84759 10.1973C4.84759 8.20814 5.63776 6.30049 7.04429 4.89396C8.45081 3.48744 10.3585 2.69727 12.3476 2.69727C14.3367 2.69727 16.2444 3.48744 17.6509 4.89396C19.0574 6.30049 19.8476 8.20814 19.8476 10.1973C19.8476 13.5095 20.622 16.0454 21.1423 16.9416C21.2764 17.1697 21.3474 17.4295 21.3479 17.6941C21.3484 17.9587 21.2784 18.2187 21.1451 18.4473H21.146ZM19.8476 17.6973C19.1229 16.4532 18.3476 13.577 18.3476 10.1973C18.3476 8.60597 17.7154 7.07984 16.5902 5.95463C15.465 4.82941 13.9389 4.19727 12.3476 4.19727C10.7563 4.19727 9.23016 4.82941 8.10495 5.95463C6.97973 7.07984 6.34759 8.60597 6.34759 10.1973C6.34759 13.5779 5.57134 16.4541 4.84759 17.6973H19.8476Z" fill="#64748B"/>
</svg>
