<svg width="25" height="24" viewBox="0 0 25 24" fill="none" xmlns="http://www.w3.org/2000/svg">
<path d="M20.1056 3H17.8556V2.25C17.8556 2.05109 17.7766 1.86032 17.6359 1.71967C17.4953 1.57902 17.3045 1.5 17.1056 1.5C16.9067 1.5 16.7159 1.57902 16.5753 1.71967C16.4346 1.86032 16.3556 2.05109 16.3556 2.25V3H8.85559V2.25C8.85559 2.05109 8.77657 1.86032 8.63592 1.71967C8.49527 1.57902 8.3045 1.5 8.10559 1.5C7.90668 1.5 7.71591 1.57902 7.57526 1.71967C7.43461 1.86032 7.35559 2.05109 7.35559 2.25V3H5.10559C4.70777 3 4.32624 3.15804 4.04493 3.43934C3.76363 3.72064 3.60559 4.10218 3.60559 4.5V19.5C3.60559 19.8978 3.76363 20.2794 4.04493 20.5607C4.32624 20.842 4.70777 21 5.10559 21H20.1056C20.5034 21 20.8849 20.842 21.1663 20.5607C21.4476 20.2794 21.6056 19.8978 21.6056 19.5V4.5C21.6056 4.10218 21.4476 3.72064 21.1663 3.43934C20.8849 3.15804 20.5034 3 20.1056 3ZM7.35559 4.5V5.25C7.35559 5.44891 7.43461 5.63968 7.57526 5.78033C7.71591 5.92098 7.90668 6 8.10559 6C8.3045 6 8.49527 5.92098 8.63592 5.78033C8.77657 5.63968 8.85559 5.44891 8.85559 5.25V4.5H16.3556V5.25C16.3556 5.44891 16.4346 5.63968 16.5753 5.78033C16.7159 5.92098 16.9067 6 17.1056 6C17.3045 6 17.4953 5.92098 17.6359 5.78033C17.7766 5.63968 17.8556 5.44891 17.8556 5.25V4.5H20.1056V7.5H5.10559V4.5H7.35559ZM20.1056 19.5H5.10559V9H20.1056V19.5ZM13.7306 12.375C13.7306 12.5975 13.6646 12.815 13.541 13C13.4174 13.185 13.2417 13.3292 13.0361 13.4144C12.8305 13.4995 12.6043 13.5218 12.3861 13.4784C12.1679 13.435 11.9674 13.3278 11.8101 13.1705C11.6528 13.0132 11.5456 12.8127 11.5022 12.5945C11.4588 12.3762 11.4811 12.15 11.5662 11.9445C11.6514 11.7389 11.7956 11.5632 11.9806 11.4396C12.1656 11.316 12.3831 11.25 12.6056 11.25C12.904 11.25 13.1901 11.3685 13.4011 11.5795C13.6121 11.7905 13.7306 12.0766 13.7306 12.375ZM17.8556 12.375C17.8556 12.5975 17.7896 12.815 17.666 13C17.5424 13.185 17.3667 13.3292 17.1611 13.4144C16.9555 13.4995 16.7293 13.5218 16.5111 13.4784C16.2929 13.435 16.0924 13.3278 15.9351 13.1705C15.7778 13.0132 15.6706 12.8127 15.6272 12.5945C15.5838 12.3762 15.6061 12.15 15.6912 11.9445C15.7764 11.7389 15.9206 11.5632 16.1056 11.4396C16.2906 11.316 16.5081 11.25 16.7306 11.25C17.029 11.25 17.3151 11.3685 17.5261 11.5795C17.7371 11.7905 17.8556 12.0766 17.8556 12.375ZM9.60559 16.125C9.60559 16.3475 9.53961 16.565 9.41599 16.75C9.29238 16.935 9.11668 17.0792 8.91111 17.1644C8.70554 17.2495 8.47934 17.2718 8.26111 17.2284C8.04289 17.185 7.84243 17.0778 7.6851 16.9205C7.52776 16.7632 7.42062 16.5627 7.37721 16.3445C7.3338 16.1262 7.35608 15.9 7.44123 15.6945C7.52637 15.4889 7.67057 15.3132 7.85557 15.1896C8.04058 15.066 8.25809 15 8.48059 15C8.77896 15 9.06511 15.1185 9.27609 15.3295C9.48706 15.5405 9.60559 15.8266 9.60559 16.125ZM13.7306 16.125C13.7306 16.3475 13.6646 16.565 13.541 16.75C13.4174 16.935 13.2417 17.0792 13.0361 17.1644C12.8305 17.2495 12.6043 17.2718 12.3861 17.2284C12.1679 17.185 11.9674 17.0778 11.8101 16.9205C11.6528 16.7632 11.5456 16.5627 11.5022 16.3445C11.4588 16.1262 11.4811 15.9 11.5662 15.6945C11.6514 15.4889 11.7956 15.3132 11.9806 15.1896C12.1656 15.066 12.3831 15 12.6056 15C12.904 15 13.1901 15.1185 13.4011 15.3295C13.6121 15.5405 13.7306 15.8266 13.7306 16.125ZM17.8556 16.125C17.8556 16.3475 17.7896 16.565 17.666 16.75C17.5424 16.935 17.3667 17.0792 17.1611 17.1644C16.9555 17.2495 16.7293 17.2718 16.5111 17.2284C16.2929 17.185 16.0924 17.0778 15.9351 16.9205C15.7778 16.7632 15.6706 16.5627 15.6272 16.3445C15.5838 16.1262 15.6061 15.9 15.6912 15.6945C15.7764 15.4889 15.9206 15.3132 16.1056 15.1896C16.2906 15.066 16.5081 15 16.7306 15C17.029 15 17.3151 15.1185 17.5261 15.3295C17.7371 15.5405 17.8556 15.8266 17.8556 16.125Z" fill="#475569"/>
</svg>
