<svg width="21" height="21" viewBox="0 0 21 21" fill="none" xmlns="http://www.w3.org/2000/svg">
<path d="M17.0398 8.38946L10.7898 14.6395C10.7318 14.6976 10.6628 14.7437 10.587 14.7751C10.5111 14.8066 10.4298 14.8228 10.3476 14.8228C10.2655 14.8228 10.1842 14.8066 10.1083 14.7751C10.0324 14.7437 9.9635 14.6976 9.90545 14.6395L3.65545 8.38946C3.53817 8.27218 3.47229 8.11312 3.47229 7.94727C3.47229 7.78142 3.53817 7.62236 3.65545 7.50508C3.77273 7.38781 3.93179 7.32192 4.09764 7.32192C4.26349 7.32192 4.42255 7.38781 4.53982 7.50508L10.3476 13.3137L16.1555 7.50508C16.2135 7.44701 16.2825 7.40095 16.3583 7.36952C16.4342 7.3381 16.5155 7.32192 16.5976 7.32192C16.6798 7.32192 16.7611 7.3381 16.8369 7.36952C16.9128 7.40095 16.9818 7.44701 17.0398 7.50508C17.0979 7.56315 17.144 7.63209 17.1754 7.70796C17.2068 7.78383 17.223 7.86515 17.223 7.94727C17.223 8.02939 17.2068 8.11071 17.1754 8.18658C17.144 8.26245 17.0979 8.33139 17.0398 8.38946Z" fill="#475569"/>
</svg>
