<svg width="25" height="25" viewBox="0 0 25 25" fill="none" xmlns="http://www.w3.org/2000/svg">
<path d="M21.3477 19.6473H20.5977V4.64728C20.5977 4.44837 20.5186 4.2576 20.378 4.11695C20.2373 3.9763 20.0466 3.89728 19.8477 3.89728H14.5977C14.3987 3.89728 14.208 3.9763 14.0673 4.11695C13.9267 4.2576 13.8477 4.44837 13.8477 4.64728V8.39728H9.34766C9.14874 8.39728 8.95798 8.4763 8.81733 8.61695C8.67667 8.7576 8.59766 8.94837 8.59766 9.14728V12.8973H4.84766C4.64874 12.8973 4.45798 12.9763 4.31733 13.1169C4.17667 13.2576 4.09766 13.4484 4.09766 13.6473V19.6473H3.34766C3.14874 19.6473 2.95798 19.7263 2.81733 19.8669C2.67667 20.0076 2.59766 20.1984 2.59766 20.3973C2.59766 20.5962 2.67667 20.787 2.81733 20.9276C2.95798 21.0683 3.14874 21.1473 3.34766 21.1473H21.3477C21.5466 21.1473 21.7373 21.0683 21.878 20.9276C22.0186 20.787 22.0977 20.5962 22.0977 20.3973C22.0977 20.1984 22.0186 20.0076 21.878 19.8669C21.7373 19.7263 21.5466 19.6473 21.3477 19.6473ZM15.3477 5.39728H19.0977V19.6473H15.3477V5.39728ZM10.0977 9.89728H13.8477V19.6473H10.0977V9.89728ZM5.59766 14.3973H8.59766V19.6473H5.59766V14.3973Z" fill="#33C789"/>
</svg>
