<svg width="25" height="24" viewBox="0 0 25 24" fill="none" xmlns="http://www.w3.org/2000/svg">
<path d="M12.8635 2.25C10.9352 2.25 9.0501 2.82183 7.44672 3.89317C5.84334 4.96451 4.59366 6.48726 3.8557 8.26884C3.11775 10.0504 2.92467 12.0108 3.30087 13.9021C3.67708 15.7934 4.60568 17.5307 5.96924 18.8943C7.3328 20.2579 9.07008 21.1865 10.9614 21.5627C12.8527 21.9389 14.8131 21.7458 16.5947 21.0078C18.3763 20.2699 19.899 19.0202 20.9704 17.4168C22.0417 15.8134 22.6135 13.9284 22.6135 12C22.6108 9.41498 21.5827 6.93661 19.7548 5.10872C17.9269 3.28084 15.4486 2.25273 12.8635 2.25ZM12.8635 20.25C11.2318 20.25 9.63678 19.7661 8.28008 18.8596C6.92337 17.9531 5.86595 16.6646 5.24152 15.1571C4.6171 13.6496 4.45372 11.9908 4.77205 10.3905C5.09038 8.79016 5.87612 7.32015 7.0299 6.16637C8.18368 5.01259 9.65369 4.22685 11.254 3.90852C12.8544 3.59019 14.5132 3.75357 16.0207 4.37799C17.5282 5.00242 18.8166 6.05984 19.7232 7.41655C20.6297 8.77325 21.1135 10.3683 21.1135 12C21.111 14.1873 20.2411 16.2843 18.6944 17.8309C17.1478 19.3775 15.0508 20.2475 12.8635 20.25ZM16.6135 13.875C16.6135 14.5712 16.337 15.2389 15.8447 15.7312C15.3524 16.2234 14.6847 16.5 13.9885 16.5H13.6135V17.25C13.6135 17.4489 13.5345 17.6397 13.3939 17.7803C13.2532 17.921 13.0624 18 12.8635 18C12.6646 18 12.4739 17.921 12.3332 17.7803C12.1925 17.6397 12.1135 17.4489 12.1135 17.25V16.5H10.6135C10.4146 16.5 10.2239 16.421 10.0832 16.2803C9.94255 16.1397 9.86353 15.9489 9.86353 15.75C9.86353 15.5511 9.94255 15.3603 10.0832 15.2197C10.2239 15.079 10.4146 15 10.6135 15H13.9885C14.2869 15 14.573 14.8815 14.784 14.6705C14.995 14.4595 15.1135 14.1734 15.1135 13.875C15.1135 13.5766 14.995 13.2905 14.784 13.0795C14.573 12.8685 14.2869 12.75 13.9885 12.75H11.7385C11.0423 12.75 10.3747 12.4734 9.88237 11.9812C9.39009 11.4889 9.11353 10.8212 9.11353 10.125C9.11353 9.42881 9.39009 8.76113 9.88237 8.26884C10.3747 7.77656 11.0423 7.5 11.7385 7.5H12.1135V6.75C12.1135 6.55109 12.1925 6.36032 12.3332 6.21967C12.4739 6.07902 12.6646 6 12.8635 6C13.0624 6 13.2532 6.07902 13.3939 6.21967C13.5345 6.36032 13.6135 6.55109 13.6135 6.75V7.5H15.1135C15.3124 7.5 15.5032 7.57902 15.6439 7.71967C15.7845 7.86032 15.8635 8.05109 15.8635 8.25C15.8635 8.44891 15.7845 8.63968 15.6439 8.78033C15.5032 8.92098 15.3124 9 15.1135 9H11.7385C11.4402 9 11.154 9.11853 10.943 9.3295C10.7321 9.54048 10.6135 9.82663 10.6135 10.125C10.6135 10.4234 10.7321 10.7095 10.943 10.9205C11.154 11.1315 11.4402 11.25 11.7385 11.25H13.9885C14.6847 11.25 15.3524 11.5266 15.8447 12.0188C16.337 12.5111 16.6135 13.1788 16.6135 13.875Z" fill="white"/>
</svg>
