<svg width="25" height="25" viewBox="0 0 25 25" fill="none" xmlns="http://www.w3.org/2000/svg">
<path d="M12.3477 7.59727C11.4576 7.59727 10.5876 7.86119 9.84758 8.35566C9.10756 8.85013 8.53079 9.55293 8.19019 10.3752C7.8496 11.1975 7.76048 12.1023 7.93412 12.9752C8.10775 13.8481 8.53633 14.6499 9.16567 15.2793C9.79501 15.9086 10.5968 16.3372 11.4697 16.5108C12.3427 16.6844 13.2475 16.5953 14.0697 16.2547C14.892 15.9141 15.5948 15.3374 16.0893 14.5973C16.5837 13.8573 16.8477 12.9873 16.8477 12.0973C16.8464 10.9042 16.3719 9.76031 15.5283 8.91666C14.6846 8.07302 13.5407 7.59851 12.3477 7.59727ZM12.3477 15.0973C11.7543 15.0973 11.1743 14.9213 10.6809 14.5917C10.1876 14.262 9.80308 13.7935 9.57601 13.2453C9.34895 12.6971 9.28954 12.0939 9.4053 11.512C9.52105 10.9301 9.80677 10.3955 10.2263 9.97595C10.6459 9.55639 11.1804 9.27067 11.7624 9.15492C12.3443 9.03916 12.9475 9.09857 13.4957 9.32563C14.0439 9.5527 14.5124 9.93721 14.8421 10.4306C15.1717 10.9239 15.3477 11.5039 15.3477 12.0973C15.3477 12.8929 15.0316 13.656 14.469 14.2186C13.9064 14.7812 13.1433 15.0973 12.3477 15.0973ZM22.6545 10.1482C22.6336 10.0426 22.5903 9.94272 22.5273 9.85536C22.4644 9.76801 22.3834 9.69522 22.2898 9.64196L19.4933 8.04821L19.482 4.89633C19.4817 4.78779 19.4578 4.6806 19.412 4.58219C19.3662 4.48378 19.2996 4.39648 19.2167 4.32633C18.2023 3.46824 17.0341 2.81065 15.7742 2.38852C15.675 2.35494 15.5699 2.34251 15.4655 2.35204C15.3612 2.36157 15.2601 2.39284 15.1686 2.44383L12.3477 4.02071L9.5239 2.44102C9.43236 2.38974 9.33107 2.35823 9.22659 2.34854C9.12211 2.33885 9.01675 2.35119 8.91734 2.38477C7.65842 2.80998 6.49155 3.47008 5.47859 4.33008C5.39587 4.40013 5.32932 4.48728 5.28352 4.58552C5.23772 4.68376 5.21375 4.79076 5.21328 4.89915L5.19921 8.05383L2.40265 9.64758C2.30909 9.70085 2.22809 9.77363 2.16517 9.86099C2.10224 9.94834 2.05885 10.0482 2.03796 10.1538C1.78202 11.44 1.78202 12.7639 2.03796 14.0501C2.05885 14.1557 2.10224 14.2556 2.16517 14.3429C2.22809 14.4303 2.30909 14.5031 2.40265 14.5563L5.19921 16.1501L5.21046 19.302C5.2108 19.4105 5.2347 19.5177 5.28051 19.6161C5.32632 19.7145 5.39294 19.8018 5.47578 19.872C6.49022 20.7301 7.65842 21.3876 8.91828 21.8098C9.01749 21.8434 9.12264 21.8558 9.22695 21.8463C9.33126 21.8367 9.43241 21.8055 9.5239 21.7545L12.3477 20.1738L15.1714 21.7535C15.2832 21.8158 15.4091 21.8481 15.537 21.8473C15.6189 21.8472 15.7003 21.8339 15.778 21.8079C17.0367 21.3833 18.2036 20.7238 19.2167 19.8645C19.2994 19.7944 19.366 19.7073 19.4118 19.609C19.4576 19.5108 19.4816 19.4038 19.482 19.2954L19.4961 16.1407L22.2927 14.547C22.3862 14.4937 22.4672 14.4209 22.5301 14.3336C22.5931 14.2462 22.6364 14.1463 22.6573 14.0407C22.9119 12.7556 22.9109 11.433 22.6545 10.1482ZM21.2483 13.421L18.5698 14.9445C18.4525 15.0112 18.3553 15.1084 18.2886 15.2257C18.2342 15.3195 18.177 15.4188 18.1189 15.5126C18.0445 15.6308 18.0049 15.7676 18.0045 15.9073L17.9905 18.9307C17.2705 19.4961 16.4685 19.9482 15.612 20.2713L12.9102 18.7657C12.798 18.7036 12.6718 18.6714 12.5436 18.672H12.5258C12.4123 18.672 12.298 18.672 12.1845 18.672C12.0504 18.6686 11.9177 18.701 11.8002 18.7657L9.0964 20.2751C8.23813 19.9544 7.43386 19.5045 6.7114 18.941L6.70109 15.9223C6.70063 15.7823 6.66101 15.6453 6.58671 15.5266C6.52859 15.4329 6.4714 15.3391 6.41796 15.2398C6.35171 15.1206 6.25455 15.0215 6.13671 14.9529L3.45546 13.4257C3.31671 12.548 3.31671 11.654 3.45546 10.7763L6.12921 9.25008C6.24657 9.18336 6.34373 9.08619 6.41046 8.96883C6.46484 8.87508 6.52203 8.77571 6.58015 8.68196C6.65455 8.56374 6.69419 8.42696 6.69453 8.28727L6.70859 5.26383C7.42852 4.69847 8.23058 4.24638 9.08703 3.92321L11.7852 5.42883C11.9026 5.49392 12.0353 5.5263 12.1695 5.52258C12.283 5.52258 12.3973 5.52258 12.5108 5.52258C12.6449 5.52594 12.7776 5.49358 12.8952 5.42883L15.5989 3.91946C16.4572 4.24015 17.2614 4.69003 17.9839 5.25352L17.9942 8.27227C17.9947 8.41224 18.0343 8.54928 18.1086 8.6679C18.1667 8.76165 18.2239 8.8554 18.2773 8.95477C18.3436 9.07394 18.4408 9.17304 18.5586 9.24165L21.2398 10.7688C21.3804 11.6472 21.382 12.5422 21.2445 13.421H21.2483Z" fill="#64748B"/>
</svg>
