<svg width="25" height="25" viewBox="0 0 25 25" fill="none" xmlns="http://www.w3.org/2000/svg">
<path d="M23.3477 20.1973H21.8477V13.4473L22.067 13.6667C22.208 13.8074 22.3991 13.8863 22.5983 13.8862C22.7975 13.886 22.9885 13.8067 23.1292 13.6657C23.2699 13.5247 23.3489 13.3336 23.3487 13.1344C23.3486 12.9352 23.2693 12.7443 23.1283 12.6035L13.908 3.38603C13.6267 3.10494 13.2453 2.94704 12.8477 2.94704C12.45 2.94704 12.0686 3.10494 11.7873 3.38603L2.56703 12.6035C2.42643 12.7443 2.34748 12.9351 2.34757 13.134C2.34766 13.333 2.42677 13.5237 2.5675 13.6643C2.70823 13.8049 2.89905 13.8839 3.09799 13.8838C3.29692 13.8837 3.48768 13.8046 3.62828 13.6638L3.84766 13.4473V20.1973H2.34766C2.14874 20.1973 1.95798 20.2763 1.81733 20.4169C1.67667 20.5576 1.59766 20.7484 1.59766 20.9473C1.59766 21.1462 1.67667 21.337 1.81733 21.4776C1.95798 21.6183 2.14874 21.6973 2.34766 21.6973H23.3477C23.5466 21.6973 23.7373 21.6183 23.878 21.4776C24.0186 21.337 24.0977 21.1462 24.0977 20.9473C24.0977 20.7484 24.0186 20.5576 23.878 20.4169C23.7373 20.2763 23.5466 20.1973 23.3477 20.1973ZM5.34766 11.9473L12.8477 4.44728L20.3477 11.9473V20.1973H15.8477V14.9473C15.8477 14.7484 15.7686 14.5576 15.628 14.4169C15.4873 14.2763 15.2966 14.1973 15.0977 14.1973H10.5977C10.3987 14.1973 10.208 14.2763 10.0673 14.4169C9.92667 14.5576 9.84766 14.7484 9.84766 14.9473V20.1973H5.34766V11.9473ZM14.3477 20.1973H11.3477V15.6973H14.3477V20.1973Z" fill="#64748B"/>
</svg>
