<svg width="25" height="25" viewBox="0 0 25 25" fill="none" xmlns="http://www.w3.org/2000/svg">
<path d="M2.97266 12.6973C2.77374 12.6973 2.58298 12.6182 2.44233 12.4776C2.30167 12.3369 2.22266 12.1462 2.22266 11.9473C2.22266 11.7484 2.30167 11.5576 2.44233 11.4169C2.58298 11.2763 2.77374 11.1973 2.97266 11.1973H5.59766C5.79657 11.1973 5.98733 11.1182 6.12799 10.9776C6.26864 10.8369 6.34766 10.6462 6.34766 10.4473C6.34766 10.2484 6.26864 10.0576 6.12799 9.91694C5.98733 9.77628 5.79657 9.69727 5.59766 9.69727H4.09766C3.50092 9.69727 2.92862 9.46021 2.50667 9.03826C2.08471 8.6163 1.84766 8.044 1.84766 7.44727C1.84766 6.85053 2.08471 6.27823 2.50667 5.85628C2.92862 5.43432 3.50092 5.19727 4.09766 5.19727C4.09766 4.99835 4.17667 4.80759 4.31733 4.66694C4.45798 4.52628 4.64874 4.44727 4.84766 4.44727C5.04657 4.44727 5.23733 4.52628 5.37799 4.66694C5.51864 4.80759 5.59766 4.99835 5.59766 5.19727H6.34766C6.54657 5.19727 6.73733 5.27628 6.87799 5.41694C7.01864 5.55759 7.09766 5.74835 7.09766 5.94727C7.09766 6.14618 7.01864 6.33694 6.87799 6.4776C6.73733 6.61825 6.54657 6.69727 6.34766 6.69727H4.09766C3.89874 6.69727 3.70798 6.77628 3.56733 6.91694C3.42667 7.05759 3.34766 7.24835 3.34766 7.44727C3.34766 7.64618 3.42667 7.83694 3.56733 7.9776C3.70798 8.11825 3.89874 8.19727 4.09766 8.19727H5.59766C6.19439 8.19727 6.76669 8.43432 7.18865 8.85628C7.6106 9.27823 7.84766 9.85053 7.84766 10.4473C7.84766 11.044 7.6106 11.6163 7.18865 12.0383C6.76669 12.4602 6.19439 12.6973 5.59766 12.6973C5.59766 12.8962 5.51864 13.0869 5.37799 13.2276C5.23733 13.3682 5.04657 13.4473 4.84766 13.4473C4.64874 13.4473 4.45798 13.3682 4.31733 13.2276C4.17667 13.0869 4.09766 12.8962 4.09766 12.6973H2.97266ZM22.0977 5.94727V18.6973C22.0977 19.0951 21.9396 19.4766 21.6583 19.7579C21.377 20.0392 20.9955 20.1973 20.5977 20.1973H4.09766C3.69983 20.1973 3.3183 20.0392 3.037 19.7579C2.75569 19.4766 2.59766 19.0951 2.59766 18.6973V14.9473C2.59766 14.7484 2.67667 14.5576 2.81733 14.4169C2.95798 14.2763 3.14874 14.1973 3.34766 14.1973C3.54657 14.1973 3.73733 14.2763 3.87799 14.4169C4.01864 14.5576 4.09766 14.7484 4.09766 14.9473V18.6973H15.3477V15.6973H7.84766C7.64874 15.6973 7.45798 15.6182 7.31733 15.4776C7.17667 15.3369 7.09766 15.1462 7.09766 14.9473C7.09766 14.7484 7.17667 14.5576 7.31733 14.4169C7.45798 14.2763 7.64874 14.1973 7.84766 14.1973H15.3477V11.1973H10.0977C9.89874 11.1973 9.70798 11.1182 9.56733 10.9776C9.42667 10.8369 9.34766 10.6462 9.34766 10.4473C9.34766 10.2484 9.42667 10.0576 9.56733 9.91694C9.70798 9.77628 9.89874 9.69727 10.0977 9.69727H20.5977V6.69727H9.34766C9.14874 6.69727 8.95798 6.61825 8.81733 6.4776C8.67667 6.33694 8.59766 6.14618 8.59766 5.94727C8.59766 5.74835 8.67667 5.55759 8.81733 5.41694C8.95798 5.27628 9.14874 5.19727 9.34766 5.19727H21.3477C21.5466 5.19727 21.7373 5.27628 21.878 5.41694C22.0186 5.55759 22.0977 5.74835 22.0977 5.94727ZM16.8477 14.1973H20.5977V11.1973H16.8477V14.1973ZM20.5977 18.6973V15.6973H16.8477V18.6973H20.5977Z" fill="#64748B"/>
</svg>
