<svg width="17" height="17" viewBox="0 0 17 17" fill="none" xmlns="http://www.w3.org/2000/svg">
<path d="M14.7014 14.3435L11.5721 11.2148C12.4791 10.1258 12.9314 8.72913 12.8348 7.31522C12.7383 5.90131 12.1004 4.57905 11.0538 3.6235C10.0072 2.66794 8.63245 2.15267 7.21562 2.18487C5.79878 2.21707 4.4489 2.79426 3.44679 3.79638C2.44468 4.79849 1.86749 6.14837 1.83529 7.5652C1.80309 8.98204 2.31836 10.3567 3.27391 11.4034C4.22946 12.45 5.55173 13.0879 6.96564 13.1844C8.37955 13.2809 9.77624 12.8287 10.8652 11.9216L13.9939 15.051C14.0404 15.0975 14.0955 15.1343 14.1562 15.1595C14.2169 15.1846 14.282 15.1975 14.3477 15.1975C14.4134 15.1975 14.4784 15.1846 14.5391 15.1595C14.5998 15.1343 14.655 15.0975 14.7014 15.051C14.7479 15.0046 14.7847 14.9494 14.8099 14.8887C14.835 14.828 14.848 14.763 14.848 14.6973C14.848 14.6316 14.835 14.5665 14.8099 14.5058C14.7847 14.4451 14.7479 14.39 14.7014 14.3435ZM2.84768 7.69726C2.84768 6.80725 3.1116 5.93722 3.60606 5.1972C4.10053 4.45718 4.80333 3.8804 5.6256 3.53981C6.44787 3.19921 7.35267 3.1101 8.22558 3.28373C9.0985 3.45736 9.90032 3.88595 10.5297 4.51528C11.159 5.14462 11.5876 5.94644 11.7612 6.81936C11.9348 7.69227 11.8457 8.59707 11.5051 9.41934C11.1645 10.2416 10.5878 10.9444 9.84774 11.4389C9.10772 11.9333 8.23769 12.1973 7.34768 12.1973C6.15461 12.1959 5.01078 11.7214 4.16716 10.8778C3.32353 10.0342 2.849 8.89033 2.84768 7.69726Z" fill="#64748B"/>
</svg>
