<svg width="25" height="25" viewBox="0 0 25 25" fill="none" xmlns="http://www.w3.org/2000/svg">
<path d="M21.8783 5.56664L18.8783 2.56664C18.8086 2.49691 18.7259 2.44159 18.6349 2.40385C18.5438 2.36611 18.4462 2.34668 18.3477 2.34668C18.2491 2.34668 18.1515 2.36611 18.0605 2.40385C17.9694 2.44159 17.8867 2.49691 17.817 2.56664L8.81703 11.5666C8.74741 11.6363 8.6922 11.7191 8.65455 11.8101C8.61691 11.9012 8.59758 11.9987 8.59766 12.0973V15.0973C8.59766 15.2962 8.67667 15.4869 8.81733 15.6276C8.95798 15.7683 9.14874 15.8473 9.34766 15.8473H12.3477C12.4462 15.8473 12.5437 15.828 12.6348 15.7904C12.7258 15.7527 12.8086 15.6975 12.8783 15.6279L21.8783 6.6279C21.948 6.55824 22.0033 6.47552 22.0411 6.38447C22.0788 6.29343 22.0982 6.19583 22.0982 6.09727C22.0982 5.99871 22.0788 5.90111 22.0411 5.81006C22.0033 5.71902 21.948 5.6363 21.8783 5.56664ZM12.0373 14.3473H10.0977V12.4076L16.0977 6.40758L18.0373 8.34727L12.0373 14.3473ZM19.0977 7.28696L17.158 5.34727L18.3477 4.15758L20.2873 6.09727L19.0977 7.28696ZM21.3477 12.0973V19.5973C21.3477 19.9951 21.1896 20.3766 20.9083 20.6579C20.627 20.9392 20.2455 21.0973 19.8477 21.0973H4.84766C4.44983 21.0973 4.0683 20.9392 3.787 20.6579C3.50569 20.3766 3.34766 19.9951 3.34766 19.5973V4.59727C3.34766 4.19944 3.50569 3.81791 3.787 3.53661C4.0683 3.2553 4.44983 3.09727 4.84766 3.09727H12.3477C12.5466 3.09727 12.7373 3.17629 12.878 3.31694C13.0186 3.45759 13.0977 3.64836 13.0977 3.84727C13.0977 4.04618 13.0186 4.23695 12.878 4.3776C12.7373 4.51825 12.5466 4.59727 12.3477 4.59727H4.84766V19.5973H19.8477V12.0973C19.8477 11.8984 19.9267 11.7076 20.0673 11.5669C20.208 11.4263 20.3987 11.3473 20.5977 11.3473C20.7966 11.3473 20.9873 11.4263 21.128 11.5669C21.2686 11.7076 21.3477 11.8984 21.3477 12.0973Z" fill="#64748B"/>
</svg>
