<svg width="25" height="25" viewBox="0 0 25 25" fill="none" xmlns="http://www.w3.org/2000/svg">
<path d="M21.6589 7.57571L17.4692 3.38696C17.3299 3.24763 17.1646 3.13711 16.9825 3.06171C16.8005 2.9863 16.6055 2.94749 16.4084 2.94749C16.2114 2.94749 16.0163 2.9863 15.8343 3.06171C15.6523 3.13711 15.487 3.24763 15.3477 3.38696L3.78735 14.9473C3.64746 15.0861 3.53655 15.2513 3.46106 15.4333C3.38558 15.6153 3.34703 15.8105 3.34766 16.0076V20.1973C3.34766 20.5951 3.5057 20.9766 3.787 21.2579C4.06831 21.5392 4.44984 21.6973 4.84766 21.6973H20.5977C20.7966 21.6973 20.9873 21.6183 21.128 21.4776C21.2686 21.3369 21.3477 21.1462 21.3477 20.9473C21.3477 20.7484 21.2686 20.5576 21.128 20.4169C20.9873 20.2763 20.7966 20.1973 20.5977 20.1973H11.1589L21.6589 9.69727C21.7982 9.55798 21.9088 9.3926 21.9842 9.21059C22.0596 9.02858 22.0984 8.8335 22.0984 8.63649C22.0984 8.43948 22.0596 8.24439 21.9842 8.06238C21.9088 7.88037 21.7982 7.715 21.6589 7.57571ZM9.03735 20.1973H4.84766V16.0076L13.0977 7.75758L17.2873 11.9473L9.03735 20.1973ZM18.3477 10.887L14.1589 6.69727L16.4089 4.44727L20.5977 8.63696L18.3477 10.887Z" fill="#64748B"/>
</svg>
