<svg width="25" height="25" viewBox="0 0 25 25" fill="none" xmlns="http://www.w3.org/2000/svg">
<path d="M13.4727 16.9723C13.4727 17.1948 13.4067 17.4123 13.2831 17.5973C13.1594 17.7823 12.9837 17.9265 12.7782 18.0117C12.5726 18.0968 12.3464 18.1191 12.1282 18.0757C11.91 18.0323 11.7095 17.9251 11.5522 17.7678C11.3948 17.6105 11.2877 17.41 11.2443 17.1918C11.2009 16.9735 11.2231 16.7473 11.3083 16.5418C11.3934 16.3362 11.5376 16.1605 11.7226 16.0369C11.9076 15.9133 12.1252 15.8473 12.3477 15.8473C12.646 15.8473 12.9322 15.9658 13.1432 16.1768C13.3541 16.3878 13.4727 16.6739 13.4727 16.9723ZM12.3477 6.84729C10.2795 6.84729 8.59766 8.36135 8.59766 10.2223V10.5973C8.59766 10.7962 8.67668 10.987 8.81733 11.1276C8.95798 11.2683 9.14875 11.3473 9.34766 11.3473C9.54657 11.3473 9.73734 11.2683 9.87799 11.1276C10.0186 10.987 10.0977 10.7962 10.0977 10.5973V10.2223C10.0977 9.19104 11.1073 8.34729 12.3477 8.34729C13.588 8.34729 14.5977 9.19104 14.5977 10.2223C14.5977 11.2535 13.588 12.0973 12.3477 12.0973C12.1487 12.0973 11.958 12.1763 11.8173 12.317C11.6767 12.4576 11.5977 12.6484 11.5977 12.8473V13.5973C11.5977 13.7962 11.6767 13.987 11.8173 14.1276C11.958 14.2683 12.1487 14.3473 12.3477 14.3473C12.5466 14.3473 12.7373 14.2683 12.878 14.1276C13.0186 13.987 13.0977 13.7962 13.0977 13.5973V13.5298C14.8077 13.2157 16.0977 11.8517 16.0977 10.2223C16.0977 8.36135 14.4158 6.84729 12.3477 6.84729ZM22.0977 12.0973C22.0977 14.0257 21.5258 15.9107 20.4545 17.5141C19.3831 19.1175 17.8604 20.3672 16.0788 21.1051C14.2972 21.8431 12.3368 22.0362 10.4455 21.6599C8.55422 21.2837 6.81693 20.3551 5.45337 18.9916C4.08981 17.628 3.16121 15.8907 2.785 13.9994C2.4088 12.1081 2.60188 10.1477 3.33984 8.36613C4.07779 6.58455 5.32747 5.06181 6.93085 3.99046C8.53423 2.91912 10.4193 2.34729 12.3477 2.34729C14.9327 2.35002 17.411 3.37813 19.2389 5.20601C21.0668 7.0339 22.0949 9.51227 22.0977 12.0973ZM20.5977 12.0973C20.5977 10.4656 20.1138 8.87054 19.2073 7.51384C18.3008 6.15713 17.0123 5.09971 15.5048 4.47528C13.9973 3.85086 12.3385 3.68748 10.7382 4.00581C9.13782 4.32414 7.66781 5.10988 6.51403 6.26366C5.36025 7.41744 4.57451 8.88745 4.25618 10.4878C3.93785 12.0881 4.10123 13.7469 4.72565 15.2544C5.35008 16.7619 6.4075 18.0504 7.76421 18.9569C9.12091 19.8634 10.716 20.3473 12.3477 20.3473C14.5349 20.3448 16.6319 19.4748 18.1786 17.9282C19.7252 16.3815 20.5952 14.2846 20.5977 12.0973Z" fill="#64748B"/>
</svg>
