<svg width="25" height="25" viewBox="0 0 25 25" fill="none" xmlns="http://www.w3.org/2000/svg">
<path d="M11.5977 20.3473C11.5977 20.5462 11.5186 20.737 11.378 20.8776C11.2373 21.0183 11.0466 21.0973 10.8477 21.0973H4.84766C4.64874 21.0973 4.45798 21.0183 4.31733 20.8776C4.17667 20.737 4.09766 20.5462 4.09766 20.3473V3.84729C4.09766 3.64838 4.17667 3.45761 4.31733 3.31696C4.45798 3.17631 4.64874 3.09729 4.84766 3.09729H10.8477C11.0466 3.09729 11.2373 3.17631 11.378 3.31696C11.5186 3.45761 11.5977 3.64838 11.5977 3.84729C11.5977 4.0462 11.5186 4.23697 11.378 4.37762C11.2373 4.51827 11.0466 4.59729 10.8477 4.59729H5.59766V19.5973H10.8477C11.0466 19.5973 11.2373 19.6763 11.378 19.817C11.5186 19.9576 11.5977 20.1484 11.5977 20.3473ZM21.8783 11.5667L18.1283 7.81666C17.9876 7.67593 17.7967 7.59687 17.5977 7.59687C17.3986 7.59687 17.2078 7.67593 17.067 7.81666C16.9263 7.9574 16.8472 8.14827 16.8472 8.34729C16.8472 8.54631 16.9263 8.73719 17.067 8.87792L19.5373 11.3473H10.8477C10.6487 11.3473 10.458 11.4263 10.3173 11.567C10.1767 11.7076 10.0977 11.8984 10.0977 12.0973C10.0977 12.2962 10.1767 12.487 10.3173 12.6276C10.458 12.7683 10.6487 12.8473 10.8477 12.8473H19.5373L17.067 15.3167C16.9263 15.4574 16.8472 15.6483 16.8472 15.8473C16.8472 16.0463 16.9263 16.2372 17.067 16.3779C17.2078 16.5186 17.3986 16.5977 17.5977 16.5977C17.7967 16.5977 17.9876 16.5186 18.1283 16.3779L21.8783 12.6279C21.948 12.5583 22.0033 12.4755 22.0411 12.3845C22.0788 12.2934 22.0982 12.1959 22.0982 12.0973C22.0982 11.9987 22.0788 11.9011 22.0411 11.8101C22.0033 11.719 21.948 11.6363 21.8783 11.5667Z" fill="#64748B"/>
</svg>
