<svg width="33" height="33" viewBox="0 0 33 33" fill="none" xmlns="http://www.w3.org/2000/svg">
<path d="M29.2142 27.9468C29.1264 28.0988 29.0002 28.2251 28.8481 28.3128C28.696 28.4006 28.5236 28.4468 28.348 28.4468H4.34797C4.17252 28.4466 4.00021 28.4002 3.84833 28.3124C3.69646 28.2246 3.57036 28.0983 3.48272 27.9463C3.39507 27.7943 3.34895 27.622 3.349 27.4465C3.34904 27.2711 3.39525 27.0987 3.48297 26.9468C5.38672 23.6555 8.32047 21.2955 11.7442 20.1768C10.0507 19.1686 8.73491 17.6324 7.99896 15.804C7.26301 13.9756 7.14758 11.9563 7.6704 10.056C8.19322 8.15565 9.32538 6.4795 10.893 5.28492C12.4606 4.09033 14.3771 3.44336 16.348 3.44336C18.3189 3.44336 20.2353 4.09033 21.8029 5.28492C23.3706 6.4795 24.5027 8.15565 25.0256 10.056C25.5484 11.9563 25.4329 13.9756 24.697 15.804C23.961 17.6324 22.6453 19.1686 20.9517 20.1768C24.3755 21.2955 27.3092 23.6555 29.213 26.9468C29.3009 27.0987 29.3474 27.2711 29.3476 27.4466C29.3478 27.6221 29.3018 27.7946 29.2142 27.9468Z" fill="#F6FBFF"/>
</svg>
