<svg width="36" height="32" viewBox="0 0 36 32" fill="none" xmlns="http://www.w3.org/2000/svg">
<path d="M19.3406 2.75819L13.582 27.6011C13.1197 29.8636 11.2702 31.4474 9.12653 31.4474L2.90564 31.4474C1.60262 31.4474 0.635862 30.1352 0.88806 28.7776L6.64658 3.93472C7.10895 1.67216 8.9584 0.0883717 11.1021 0.0883717L17.365 0.0883717C18.626 0.0431205 19.5928 1.3554 19.3406 2.75819Z" fill="#14253B"/>
<path d="M35.2687 1.49173L32.9148 13.438C32.1582 17.1486 29.0898 19.8185 25.559 19.8185L20.5151 19.8185C19.8426 19.8185 19.2961 19.1397 19.4643 18.4157L21.8181 6.46936C22.5747 2.71351 25.6431 0.0436935 29.1739 0.0436935L34.2178 0.0436935C34.8904 0.0436935 35.3948 0.767712 35.2687 1.49173Z" fill="#14253B"/>
</svg>
