<svg width="167" height="33" viewBox="0 0 167 33" fill="none" xmlns="http://www.w3.org/2000/svg">
<path d="M48.3596 28.0756C46.3418 28.0756 44.899 27.6416 44.031 26.7737C43.163 25.8944 42.6896 24.4516 42.6107 22.4451C42.5994 21.9153 42.5882 21.4024 42.5769 20.9064C42.5769 20.3992 42.5825 19.8919 42.5938 19.3847C42.6163 18.8774 42.6502 18.3589 42.6952 17.8291L46.1446 17.8291C46.0995 18.7309 46.0713 19.6327 46.06 20.5345C46.06 21.4362 46.0882 22.2873 46.1446 23.0876C46.1897 23.7527 46.3869 24.2487 46.7364 24.5756C47.0858 24.8912 47.6212 25.049 48.3427 25.049C49.0528 25.049 49.5657 24.8912 49.8813 24.5756C50.197 24.2487 50.3886 23.7527 50.4562 23.0876C50.49 22.5804 50.5126 22.1069 50.5239 21.6673C50.5351 21.2277 50.5351 20.7825 50.5239 20.3316C50.5126 19.8807 50.49 19.3847 50.4562 18.8436C50.4111 18.1786 50.2759 17.6093 50.0504 17.1359C49.825 16.6624 49.4135 16.3468 48.8161 16.189L46.5504 15.6141C45.5359 15.3549 44.7412 14.9772 44.1663 14.4812C43.5914 13.974 43.18 13.3315 42.932 12.5537C42.684 11.7759 42.5431 10.8459 42.5093 9.7638C42.498 9.1551 42.4923 8.53513 42.4923 7.90388C42.5036 7.27263 42.5149 6.64702 42.5262 6.02704C42.5713 4.69692 42.7854 3.62605 43.1687 2.81444C43.5632 1.99157 44.1776 1.39414 45.0117 1.02215C45.8571 0.638896 46.9674 0.447268 48.3427 0.447268C50.2928 0.447268 51.7018 0.881251 52.5698 1.74922C53.449 2.61718 53.9281 4.04876 54.007 6.04395C54.0295 6.59629 54.0352 7.27827 54.0239 8.08987C54.0126 8.8902 53.9901 9.69053 53.9563 10.4909L50.4393 10.4909C50.4731 9.64545 50.49 8.80002 50.49 7.9546C50.5013 7.09791 50.49 6.24685 50.4562 5.40143C50.445 4.74764 50.259 4.26293 49.8982 3.94731C49.5375 3.62041 49.0134 3.45697 48.3258 3.45697C47.6043 3.45697 47.0802 3.62041 46.7533 3.94731C46.4264 4.26293 46.2348 4.74764 46.1784 5.40143C46.122 6.12286 46.0938 6.84992 46.0938 7.58262C46.1051 8.31532 46.1333 9.04238 46.1784 9.7638C46.2235 10.4852 46.3644 11.0658 46.6011 11.5054C46.8378 11.945 47.2662 12.2437 47.8861 12.4015L49.9321 12.8919C51.0029 13.1398 51.8371 13.5287 52.4345 14.0585C53.0319 14.5771 53.4547 15.2365 53.7026 16.0368C53.9506 16.8259 54.0915 17.7615 54.1254 18.8436C54.1479 19.3171 54.1592 19.7454 54.1592 20.1287C54.1592 20.5119 54.1535 20.8895 54.1423 21.2615C54.131 21.6222 54.1197 22.0168 54.1084 22.4451C54.0295 24.4516 53.5505 25.8944 52.6712 26.7737C51.8033 27.6416 50.366 28.0756 48.3596 28.0756Z" fill="#0B1521"/>
<path d="M62.2998 28.0756C60.2482 28.0756 58.7772 27.6473 57.8867 26.7906C57.0075 25.9226 56.5566 24.4854 56.534 22.4789C56.4889 18.8718 56.4664 15.2478 56.4664 11.6068C56.4664 7.9546 56.4889 4.33057 56.534 0.734712L60.1862 0.734712C60.1524 3.13571 60.1299 5.60433 60.1186 8.1406C60.1073 10.6656 60.1073 13.1962 60.1186 15.7325C60.1299 18.2575 60.1468 20.7205 60.1693 23.1214C60.1693 23.764 60.3497 24.2487 60.7104 24.5756C61.0711 24.8912 61.6009 25.049 62.2998 25.049C63.01 25.049 63.5341 24.8912 63.8723 24.5756C64.2217 24.2487 64.3964 23.764 64.3964 23.1214C64.419 20.7205 64.4359 18.2575 64.4472 15.7325C64.4584 13.1962 64.4584 10.6656 64.4472 8.1406C64.4472 5.60433 64.4303 3.13571 64.3964 0.734712L68.0487 0.734712C68.105 4.33057 68.1332 7.9546 68.1332 11.6068C68.1332 15.2478 68.105 18.8718 68.0487 22.4789C68.0261 24.4854 67.5696 25.9226 66.6791 26.7906C65.7998 27.6473 64.3401 28.0756 62.2998 28.0756Z" fill="#0B1521"/>
<path d="M69.9398 27.7882L73.2538 0.734712L79.3409 0.734712L82.6549 27.7882L78.9182 27.7882L78.2756 21.0417L74.3191 21.0417L73.6934 27.7882L69.9398 27.7882ZM74.6741 17.7953L77.9375 17.7953L77.3626 11.8435L76.7708 3.98113L75.8239 3.98113L75.249 11.8435L74.6741 17.7953Z" fill="#0B1521"/>
<path d="M92.0077 27.7882L92.0077 0.734712L98.1285 0.734712L100.056 11.387L100.817 24.491L101.578 24.491L102.305 11.387L104.266 0.734712L110.387 0.734712L110.387 27.7882L106.718 27.7882L106.718 19.689L107.411 3.98113L106.566 3.98113L104.96 19.9089L103.303 27.7374L99.0754 27.7374L97.4522 19.9089L95.8121 3.98113L95.0174 3.98113L95.6599 19.689L95.6599 27.7882L92.0077 27.7882Z" fill="#0B1521"/>
<path d="M112.475 27.7882L115.789 0.734712L121.876 0.734712L125.19 27.7882L121.453 27.7882L120.811 21.0417L116.854 21.0417L116.229 27.7882L112.475 27.7882ZM117.209 17.7953L120.473 17.7953L119.898 11.8435L119.306 3.98113L118.359 3.98113L117.784 11.8435L117.209 17.7953Z" fill="#0B1521"/>
<path d="M127.311 27.7882L127.311 0.734712L132.637 0.734712C134.655 0.734712 136.114 1.15742 137.016 2.00284C137.929 2.84826 138.42 4.25166 138.487 6.21304C138.521 7.03591 138.538 7.79115 138.538 8.47876C138.549 9.1551 138.549 9.8258 138.538 10.4909C138.538 11.1447 138.521 11.8379 138.487 12.5706C138.453 13.8444 138.234 14.8814 137.828 15.6817C137.433 16.4708 136.819 17.057 135.985 17.4402L138.944 27.7882L135.055 27.7882L132.535 18.0489L130.963 18.0489L130.963 27.7882L127.311 27.7882ZM130.963 14.8194L132.62 14.8194C133.353 14.8194 133.894 14.6503 134.243 14.3122C134.604 13.9627 134.801 13.4442 134.835 12.7566C134.869 12.0352 134.891 11.2968 134.903 10.5416C134.914 9.77508 134.914 9.0142 134.903 8.25895C134.891 7.49244 134.869 6.74847 134.835 6.02704C134.801 5.33944 134.609 4.82655 134.26 4.48838C133.911 4.15021 133.37 3.98113 132.637 3.98113L130.963 3.98113L130.963 14.8194Z" fill="#0B1521"/>
<path d="M146.861 28.0756C144.809 28.0756 143.344 27.6416 142.464 26.7737C141.596 25.9057 141.145 24.4685 141.112 22.462C141.089 21.1995 141.072 19.875 141.061 18.4885C141.05 17.1021 141.044 15.693 141.044 14.2614C141.044 12.8299 141.05 11.4208 141.061 10.0343C141.072 8.63658 141.089 7.30081 141.112 6.02704C141.134 4.26857 141.596 2.90462 142.498 1.93521C143.4 0.954521 144.848 0.464177 146.844 0.464177C148.828 0.464177 150.265 0.898159 151.155 1.76612C152.046 2.62282 152.525 4.0544 152.592 6.06086C152.604 6.45539 152.609 6.92883 152.609 7.48117C152.609 8.02224 152.604 8.56331 152.592 9.10438C152.581 9.63417 152.57 10.102 152.559 10.5078L148.906 10.5078C148.918 10.0118 148.923 9.46509 148.923 8.86766C148.935 8.27023 148.94 7.6728 148.94 7.07537C148.94 6.46666 148.935 5.91432 148.923 5.41834C148.912 4.75328 148.732 4.26293 148.382 3.94731C148.044 3.63169 147.531 3.47387 146.844 3.47387C146.156 3.47387 145.643 3.63169 145.305 3.94731C144.967 4.26293 144.786 4.75328 144.764 5.41834C144.719 6.84992 144.685 8.30968 144.662 9.79762C144.651 11.2743 144.646 12.7622 144.646 14.2614C144.646 15.7607 144.651 17.2542 144.662 18.7422C144.685 20.2301 144.719 21.6842 144.764 23.1045C144.786 23.7696 144.967 24.2656 145.305 24.5925C145.654 24.9081 146.173 25.0659 146.861 25.0659C147.593 25.0659 148.14 24.9081 148.501 24.5925C148.861 24.2656 149.047 23.7696 149.059 23.1045C149.07 22.5973 149.076 22.0337 149.076 21.4137C149.087 20.7825 149.087 20.1568 149.076 19.5369C149.064 18.9169 149.053 18.3533 149.042 17.846L152.711 17.846C152.733 18.59 152.745 19.3621 152.745 20.1625C152.756 20.9515 152.75 21.7181 152.728 22.462C152.66 24.4685 152.17 25.9057 151.257 26.7737C150.355 27.6416 148.89 28.0756 146.861 28.0756Z" fill="#0B1521"/>
<path d="M154.284 27.7882L157.598 0.734712L163.685 0.734712L166.999 27.7882L163.262 27.7882L162.62 21.0417L158.663 21.0417L158.038 27.7882L154.284 27.7882ZM159.018 17.7953L162.282 17.7953L161.707 11.8435L161.115 3.98113L160.168 3.98113L159.593 11.8435L159.018 17.7953Z" fill="#0B1521"/>
<path d="M19.3406 3.75819L13.582 28.6011C13.1197 30.8636 11.2702 32.4474 9.12653 32.4474L2.90564 32.4474C1.60262 32.4474 0.635862 31.1352 0.88806 29.7776L6.64658 4.93472C7.10895 2.67216 8.9584 1.08837 11.1021 1.08837L17.365 1.08837C18.626 1.04312 19.5928 2.3554 19.3406 3.75819Z" fill="#14253B"/>
<path d="M35.2687 2.49173L32.9148 14.438C32.1582 18.1486 29.0898 20.8185 25.559 20.8185L20.5151 20.8185C19.8426 20.8185 19.2961 20.1397 19.4643 19.4157L21.8181 7.46936C22.5747 3.71351 25.6431 1.04369 29.1739 1.04369L34.2178 1.04369C34.8904 1.04369 35.3948 1.76771 35.2687 2.49173Z" fill="#14253B"/>
</svg>
